# xmcd
#
# Track frame offsets:
#	150
#	15233
#	28987
#	42928
#	59953
#	76632
#	93663
#	106803
#	118397
#	136904
#	151703
#	166907
#	176983
#	189367
#	210415
#	231461
#	243324
#	260830
#	272752
#	285408
#
# Disc length: 3985 seconds
#
# Revision: 1
# Processed by: cddbd v1.5.2PL0 Copyright (c) Steve Scherf et al.
# Submitted via: audiograbber 1.83.01
#
DISCID=180f8f14
DTITLE=Lennerockers - High Class Lady
DYEAR=1900
DGENRE=
TTITLE0=Will You Miss Me When I´m Gone
TTITLE1=Pin Up Girl
TTITLE2=Rattlesnake Cafe
TTITLE3=Huddersfield
TTITLE4=High Class Lady
TTITLE5=White Mice, Pink Elephants
TTITLE6=Benn There, Done That
TTITLE7=The Girl In My Dreams
TTITLE8=Down In Lousiana
TTITLE9=Boogie Woogie Queen
TTITLE10=Incarnation Of Rock´n´Roll
TTITLE11=Skifflebilly Bop
TTITLE12=Scandinavian Rock
TTITLE13=Mississippi Delta Blues
TTITLE14=Rockin´On a Sea Cruese
TTITLE15=Hometown Heartbreak
TTITLE16=United Kingdome of Rock´n´Roll
TTITLE17=Coupe De Ville
TTITLE18=Women, Booze and Rock´n´Roll
TTITLE19=Das Unbekannte Bild
EXTD=
EXTT0=
EXTT1=
EXTT2=
EXTT3=
EXTT4=
EXTT5=
EXTT6=
EXTT7=
EXTT8=
EXTT9=
EXTT10=
EXTT11=
EXTT12=
EXTT13=
EXTT14=
EXTT15=
EXTT16=
EXTT17=
EXTT18=
EXTT19=
PLAYORDER=
